<?xml version="1.0" encoding="UTF-8" standalone="no"?><!DOCTYPE svg PUBLIC "-//W3C//DTD SVG 1.1//EN" "http://www.w3.org/Graphics/SVG/1.1/DTD/svg11.dtd"><!-- Generated by graphviz version 2.40.1 (20161225.0304)
 --><!-- Title: %0 Pages: 1 --><svg xmlns="http://www.w3.org/2000/svg" xmlns:xlink="http://www.w3.org/1999/xlink" width="622pt" height="1844pt" viewBox="0.00 0.00 621.94 1844.00">
<g id="graph0" class="graph" transform="scale(1 1) rotate(0) translate(4 1840)">
<title>%0</title>
<polygon fill="#ffffff" stroke="transparent" points="-4,4 -4,-1840 617.9383,-1840 617.9383,4 -4,4"/>
<!-- Anthony -->
<g id="node1" class="node">
<title>Anthony</title>
<ellipse fill="none" stroke="#000000" cx="68.3342" cy="-1818" rx="44.6684" ry="18"/>
<text text-anchor="middle" x="68.3342" y="-1813.8" font-family="Times,serif" font-size="14.00" fill="#000000">Anthony</text>
</g>
<!-- Bluff_City -->
<g id="node2" class="node">
<title>Bluff_City</title>
<ellipse fill="none" stroke="#000000" cx="356.3342" cy="-1746" rx="52.7662" ry="18"/>
<text text-anchor="middle" x="356.3342" y="-1741.8" font-family="Times,serif" font-size="14.00" fill="#000000">Bluff_City</text>
</g>
<!-- Anthony&#45;&gt;Bluff_City -->
<g id="edge1" class="edge">
<title>Anthony-&gt;Bluff_City</title>
<path fill="none" stroke="#000000" d="M106.5784,-1808.439C157.2432,-1795.7727 246.8351,-1773.3748 303.8141,-1759.13"/>
<polygon fill="#000000" stroke="#000000" points="304.8567,-1762.4772 313.7093,-1756.6562 303.1589,-1755.6862 304.8567,-1762.4772"/>
</g>
<!-- Argonia -->
<g id="node24" class="node">
<title>Argonia</title>
<ellipse fill="none" stroke="#000000" cx="235.3342" cy="-1458" rx="42.8577" ry="18"/>
<text text-anchor="middle" x="235.3342" y="-1453.8" font-family="Times,serif" font-size="14.00" fill="#000000">Argonia</text>
</g>
<!-- Anthony&#45;&gt;Argonia -->
<g id="edge23" class="edge">
<title>Anthony-&gt;Argonia</title>
<path fill="none" stroke="#000000" d="M54.3373,-1800.5497C34.9636,-1774.5829 2.3342,-1723.5014 2.3342,-1674 2.3342,-1674 2.3342,-1674 2.3342,-1602 2.3342,-1561.1184 -7.0026,-1541.4676 21.3342,-1512 43.587,-1488.8592 128.399,-1472.876 184.3367,-1464.595"/>
<polygon fill="#000000" stroke="#000000" points="185.0268,-1468.0318 194.4239,-1463.1384 184.0263,-1461.1036 185.0268,-1468.0318"/>
</g>
<!-- Kiowa -->
<g id="node3" class="node">
<title>Kiowa</title>
<ellipse fill="none" stroke="#000000" cx="201.3342" cy="-1674" rx="36.5575" ry="18"/>
<text text-anchor="middle" x="201.3342" y="-1669.8" font-family="Times,serif" font-size="14.00" fill="#000000">Kiowa</text>
</g>
<!-- Bluff_City&#45;&gt;Kiowa -->
<g id="edge2" class="edge">
<title>Bluff_City-&gt;Kiowa</title>
<path fill="none" stroke="#000000" d="M324.9676,-1731.4297C299.7566,-1719.7188 264.3048,-1703.2509 237.8248,-1690.9505"/>
<polygon fill="#000000" stroke="#000000" points="239.0543,-1687.6625 228.5105,-1686.6238 236.1053,-1694.011 239.0543,-1687.6625"/>
</g>
<!-- Mayfield -->
<g id="node14" class="node">
<title>Mayfield</title>
<ellipse fill="none" stroke="#000000" cx="473.3342" cy="-1674" rx="46.3662" ry="18"/>
<text text-anchor="middle" x="473.3342" y="-1669.8" font-family="Times,serif" font-size="14.00" fill="#000000">Mayfield</text>
</g>
<!-- Bluff_City&#45;&gt;Mayfield -->
<g id="edge12" class="edge">
<title>Bluff_City-&gt;Mayfield</title>
<path fill="none" stroke="#000000" d="M382.0103,-1730.1993C399.0058,-1719.7405 421.4663,-1705.9187 439.8595,-1694.5998"/>
<polygon fill="#000000" stroke="#000000" points="441.8381,-1697.4919 448.5204,-1689.27 438.1694,-1691.5302 441.8381,-1697.4919"/>
</g>
<!-- Attica -->
<g id="node4" class="node">
<title>Attica</title>
<ellipse fill="none" stroke="#000000" cx="201.3342" cy="-1602" rx="34.7651" ry="18"/>
<text text-anchor="middle" x="201.3342" y="-1597.8" font-family="Times,serif" font-size="14.00" fill="#000000">Attica</text>
</g>
<!-- Kiowa&#45;&gt;Attica -->
<g id="edge3" class="edge">
<title>Kiowa-&gt;Attica</title>
<path fill="none" stroke="#000000" d="M195.4185,-1656.2022C194.6287,-1648.3271 194.3997,-1638.875 194.7313,-1630.0852"/>
<polygon fill="#000000" stroke="#000000" points="198.2411,-1630.0532 195.414,-1619.8425 191.2566,-1629.5876 198.2411,-1630.0532"/>
</g>
<!-- Coldwater -->
<g id="node22" class="node">
<title>Coldwater</title>
<ellipse fill="none" stroke="#000000" cx="306.3342" cy="-1602" rx="51.0223" ry="18"/>
<text text-anchor="middle" x="306.3342" y="-1597.8" font-family="Times,serif" font-size="14.00" fill="#000000">Coldwater</text>
</g>
<!-- Kiowa&#45;&gt;Coldwater -->
<g id="edge45" class="edge">
<title>Kiowa-&gt;Coldwater</title>
<path fill="none" stroke="#000000" d="M222.8359,-1659.256C237.6526,-1649.0959 257.6015,-1635.4167 274.2847,-1623.9768"/>
<polygon fill="#000000" stroke="#000000" points="276.3989,-1626.7709 282.6669,-1618.229 272.4402,-1620.9978 276.3989,-1626.7709"/>
</g>
<!-- Attica&#45;&gt;Kiowa -->
<g id="edge44" class="edge">
<title>Attica-&gt;Kiowa</title>
<path fill="none" stroke="#000000" d="M207.2544,-1619.8425C208.042,-1627.7236 208.269,-1637.1774 207.9352,-1645.9647"/>
<polygon fill="#000000" stroke="#000000" points="204.4257,-1645.9908 207.2499,-1656.2022 211.41,-1646.4583 204.4257,-1645.9908"/>
</g>
<!-- Harper -->
<g id="node5" class="node">
<title>Harper</title>
<ellipse fill="none" stroke="#000000" cx="68.3342" cy="-1530" rx="37.6794" ry="18"/>
<text text-anchor="middle" x="68.3342" y="-1525.8" font-family="Times,serif" font-size="14.00" fill="#000000">Harper</text>
</g>
<!-- Attica&#45;&gt;Harper -->
<g id="edge4" class="edge">
<title>Attica-&gt;Harper</title>
<path fill="none" stroke="#000000" d="M177.2489,-1588.9613C156.366,-1577.6563 125.9058,-1561.1666 102.5044,-1548.4982"/>
<polygon fill="#000000" stroke="#000000" points="104.0577,-1545.3591 93.5974,-1543.6763 100.7252,-1551.515 104.0577,-1545.3591"/>
</g>
<!-- Medicine_Lodge -->
<g id="node6" class="node">
<title>Medicine_Lodge</title>
<ellipse fill="none" stroke="#000000" cx="201.3342" cy="-1530" rx="77.0101" ry="18"/>
<text text-anchor="middle" x="201.3342" y="-1525.8" font-family="Times,serif" font-size="14.00" fill="#000000">Medicine_Lodge</text>
</g>
<!-- Attica&#45;&gt;Medicine_Lodge -->
<g id="edge5" class="edge">
<title>Attica-&gt;Medicine_Lodge</title>
<path fill="none" stroke="#000000" d="M195.4185,-1584.2022C194.6346,-1576.3864 194.4031,-1567.0171 194.7239,-1558.2836"/>
<polygon fill="#000000" stroke="#000000" points="198.2302,-1558.2999 195.3892,-1548.0931 191.2451,-1557.8439 198.2302,-1558.2999"/>
</g>
<!-- Harper&#45;&gt;Anthony -->
<g id="edge22" class="edge">
<title>Harper-&gt;Anthony</title>
<path fill="none" stroke="#000000" d="M68.3342,-1548.0089C68.3342,-1596.6912 68.3342,-1731.1886 68.3342,-1789.9345"/>
<polygon fill="#000000" stroke="#000000" points="64.8343,-1789.9843 68.3342,-1799.9843 71.8343,-1789.9843 64.8343,-1789.9843"/>
</g>
<!-- Medicine_Lodge&#45;&gt;Attica -->
<g id="edge43" class="edge">
<title>Medicine_Lodge-&gt;Attica</title>
<path fill="none" stroke="#000000" d="M207.2792,-1548.0931C208.0491,-1555.9477 208.2668,-1565.3282 207.9321,-1574.0453"/>
<polygon fill="#000000" stroke="#000000" points="204.428,-1573.9901 207.2499,-1584.2022 211.4123,-1574.4593 204.428,-1573.9901"/>
</g>
<!-- Augusta -->
<g id="node7" class="node">
<title>Augusta</title>
<ellipse fill="none" stroke="#000000" cx="228.3342" cy="-450" rx="43.4396" ry="18"/>
<text text-anchor="middle" x="228.3342" y="-445.8" font-family="Times,serif" font-size="14.00" fill="#000000">Augusta</text>
</g>
<!-- Winfield -->
<g id="node8" class="node">
<title>Winfield</title>
<ellipse fill="none" stroke="#000000" cx="203.3342" cy="-378" rx="45.2227" ry="18"/>
<text text-anchor="middle" x="203.3342" y="-373.8" font-family="Times,serif" font-size="14.00" fill="#000000">Winfield</text>
</g>
<!-- Augusta&#45;&gt;Winfield -->
<g id="edge6" class="edge">
<title>Augusta-&gt;Winfield</title>
<path fill="none" stroke="#000000" d="M222.0256,-431.8314C219.2511,-423.8406 215.9321,-414.2819 212.8659,-405.4514"/>
<polygon fill="#000000" stroke="#000000" points="216.1407,-404.2121 209.5541,-395.9134 209.5279,-406.5082 216.1407,-404.2121"/>
</g>
<!-- Emporia -->
<g id="node17" class="node">
<title>Emporia</title>
<ellipse fill="none" stroke="#000000" cx="311.3342" cy="-378" rx="44.0814" ry="18"/>
<text text-anchor="middle" x="311.3342" y="-373.8" font-family="Times,serif" font-size="14.00" fill="#000000">Emporia</text>
</g>
<!-- Augusta&#45;&gt;Emporia -->
<g id="edge16" class="edge">
<title>Augusta-&gt;Emporia</title>
<path fill="none" stroke="#000000" d="M247.1682,-433.6621C258.2324,-424.0642 272.3972,-411.7767 284.6023,-401.1891"/>
<polygon fill="#000000" stroke="#000000" points="287.027,-403.7192 292.2874,-394.5225 282.44,-398.4314 287.027,-403.7192"/>
</g>
<!-- Andover -->
<g id="node9" class="node">
<title>Andover</title>
<ellipse fill="none" stroke="#000000" cx="157.3342" cy="-522" rx="44.6472" ry="18"/>
<text text-anchor="middle" x="157.3342" y="-517.8" font-family="Times,serif" font-size="14.00" fill="#000000">Andover</text>
</g>
<!-- Winfield&#45;&gt;Andover -->
<g id="edge7" class="edge">
<title>Winfield-&gt;Andover</title>
<path fill="none" stroke="#000000" d="M192.8851,-395.9866C187.2955,-406.2548 180.6868,-419.5311 176.3342,-432 169.2948,-452.1657 164.4247,-475.8267 161.3786,-493.8262"/>
<polygon fill="#000000" stroke="#000000" points="157.9228,-493.2721 159.7933,-503.7005 164.8343,-494.3818 157.9228,-493.2721"/>
</g>
<!-- Andover&#45;&gt;Augusta -->
<g id="edge15" class="edge">
<title>Andover-&gt;Augusta</title>
<path fill="none" stroke="#000000" d="M174.1602,-504.937C183.1792,-495.791 194.4462,-484.3652 204.3657,-474.3061"/>
<polygon fill="#000000" stroke="#000000" points="207.0996,-476.5184 211.629,-466.9405 202.1154,-471.6034 207.0996,-476.5184"/>
</g>
<!-- Leon -->
<g id="node10" class="node">
<title>Leon</title>
<ellipse fill="none" stroke="#000000" cx="98.3342" cy="-450" rx="30.7597" ry="18"/>
<text text-anchor="middle" x="98.3342" y="-445.8" font-family="Times,serif" font-size="14.00" fill="#000000">Leon</text>
</g>
<!-- Andover&#45;&gt;Leon -->
<g id="edge8" class="edge">
<title>Andover-&gt;Leon</title>
<path fill="none" stroke="#000000" d="M143.0519,-504.5708C135.5917,-495.4668 126.3434,-484.1808 118.1968,-474.2391"/>
<polygon fill="#000000" stroke="#000000" points="120.7216,-471.7981 111.6761,-466.2817 115.3072,-476.2349 120.7216,-471.7981"/>
</g>
<!-- Newton -->
<g id="node27" class="node">
<title>Newton</title>
<ellipse fill="none" stroke="#000000" cx="383.3342" cy="-450" rx="41.7133" ry="18"/>
<text text-anchor="middle" x="383.3342" y="-445.8" font-family="Times,serif" font-size="14.00" fill="#000000">Newton</text>
</g>
<!-- Andover&#45;&gt;Newton -->
<g id="edge64" class="edge">
<title>Andover-&gt;Newton</title>
<path fill="none" stroke="#000000" d="M192.6467,-510.75C232.4969,-498.0544 297.3311,-477.3992 340.1584,-463.7551"/>
<polygon fill="#000000" stroke="#000000" points="341.278,-467.0718 349.7437,-460.7014 339.1531,-460.4021 341.278,-467.0718"/>
</g>
<!-- Wichita -->
<g id="node11" class="node">
<title>Wichita</title>
<ellipse fill="none" stroke="#000000" cx="98.3342" cy="-378" rx="41.7095" ry="18"/>
<text text-anchor="middle" x="98.3342" y="-373.8" font-family="Times,serif" font-size="14.00" fill="#000000">Wichita</text>
</g>
<!-- Leon&#45;&gt;Wichita -->
<g id="edge9" class="edge">
<title>Leon-&gt;Wichita</title>
<path fill="none" stroke="#000000" d="M98.3342,-431.8314C98.3342,-424.131 98.3342,-414.9743 98.3342,-406.4166"/>
<polygon fill="#000000" stroke="#000000" points="101.8343,-406.4132 98.3342,-396.4133 94.8343,-406.4133 101.8343,-406.4132"/>
</g>
<!-- Derby -->
<g id="node45" class="node">
<title>Derby</title>
<ellipse fill="none" stroke="#000000" cx="147.3342" cy="-306" rx="35.3334" ry="18"/>
<text text-anchor="middle" x="147.3342" y="-301.8" font-family="Times,serif" font-size="14.00" fill="#000000">Derby</text>
</g>
<!-- Wichita&#45;&gt;Derby -->
<g id="edge59" class="edge">
<title>Wichita-&gt;Derby</title>
<path fill="none" stroke="#000000" d="M110.1957,-360.5708C116.0941,-351.9038 123.3383,-341.2592 129.8578,-331.6796"/>
<polygon fill="#000000" stroke="#000000" points="132.8491,-333.505 135.5819,-323.2687 127.0621,-329.5666 132.8491,-333.505"/>
</g>
<!-- Caldwell -->
<g id="node12" class="node">
<title>Caldwell</title>
<ellipse fill="none" stroke="#000000" cx="380.3342" cy="-1530" rx="45.8022" ry="18"/>
<text text-anchor="middle" x="380.3342" y="-1525.8" font-family="Times,serif" font-size="14.00" fill="#000000">Caldwell</text>
</g>
<!-- South_Haven -->
<g id="node13" class="node">
<title>South_Haven</title>
<ellipse fill="none" stroke="#000000" cx="550.3342" cy="-18" rx="63.7083" ry="18"/>
<text text-anchor="middle" x="550.3342" y="-13.8" font-family="Times,serif" font-size="14.00" fill="#000000">South_Haven</text>
</g>
<!-- Caldwell&#45;&gt;South_Haven -->
<g id="edge10" class="edge">
<title>Caldwell-&gt;South_Haven</title>
<path fill="none" stroke="#000000" d="M408.328,-1515.602C447.0754,-1493.4372 512.3342,-1447.0456 512.3342,-1386 512.3342,-1386 512.3342,-1386 512.3342,-378 512.3342,-253.7927 534.982,-106.8051 545.3091,-46.2372"/>
<polygon fill="#000000" stroke="#000000" points="548.7747,-46.7356 547.0284,-36.2857 541.8769,-45.5438 548.7747,-46.7356"/>
</g>
<!-- Caldwell&#45;&gt;Argonia -->
<g id="edge39" class="edge">
<title>Caldwell-&gt;Argonia</title>
<path fill="none" stroke="#000000" d="M351.6869,-1515.7751C328.9997,-1504.5098 297.1355,-1488.6876 272.4877,-1476.4486"/>
<polygon fill="#000000" stroke="#000000" points="273.9418,-1473.263 263.4286,-1471.9503 270.8286,-1479.5326 273.9418,-1473.263"/>
</g>
<!-- South_Haven&#45;&gt;Bluff_City -->
<g id="edge11" class="edge">
<title>South_Haven-&gt;Bluff_City</title>
<path fill="none" stroke="#000000" d="M558.393,-36.2332C569.5476,-63.1752 588.3342,-115.4595 588.3342,-162 588.3342,-1602 588.3342,-1602 588.3342,-1602 588.3342,-1683.7822 482.9768,-1720.7344 414.2605,-1736.138"/>
<polygon fill="#000000" stroke="#000000" points="413.4456,-1732.7331 404.4047,-1738.257 414.9171,-1739.5767 413.4456,-1732.7331"/>
</g>
<!-- Wellington -->
<g id="node36" class="node">
<title>Wellington</title>
<ellipse fill="none" stroke="#000000" cx="430.3342" cy="-1602" rx="54.4739" ry="18"/>
<text text-anchor="middle" x="430.3342" y="-1597.8" font-family="Times,serif" font-size="14.00" fill="#000000">Wellington</text>
</g>
<!-- Mayfield&#45;&gt;Wellington -->
<g id="edge37" class="edge">
<title>Mayfield-&gt;Wellington</title>
<path fill="none" stroke="#000000" d="M462.705,-1656.2022C457.7434,-1647.8944 451.7336,-1637.8316 446.2458,-1628.6427"/>
<polygon fill="#000000" stroke="#000000" points="449.1225,-1626.6334 440.9902,-1619.8425 443.1127,-1630.2226 449.1225,-1626.6334"/>
</g>
<!-- Mulvane -->
<g id="node44" class="node">
<title>Mulvane</title>
<ellipse fill="none" stroke="#000000" cx="460.3342" cy="-90" rx="45.2266" ry="18"/>
<text text-anchor="middle" x="460.3342" y="-85.8" font-family="Times,serif" font-size="14.00" fill="#000000">Mulvane</text>
</g>
<!-- Mayfield&#45;&gt;Mulvane -->
<g id="edge57" class="edge">
<title>Mayfield-&gt;Mulvane</title>
<path fill="none" stroke="#000000" d="M489.6639,-1656.9537C512.2666,-1631.4901 550.3342,-1581.0294 550.3342,-1530 550.3342,-1530 550.3342,-1530 550.3342,-378 550.3342,-277.8146 500.1039,-166.5834 474.6945,-116.7253"/>
<polygon fill="#000000" stroke="#000000" points="477.6722,-114.8641 469.9658,-107.5934 471.4561,-118.0829 477.6722,-114.8641"/>
</g>
<!-- El_Dorado -->
<g id="node15" class="node">
<title>El_Dorado</title>
<ellipse fill="none" stroke="#000000" cx="157.3342" cy="-666" rx="53.3129" ry="18"/>
<text text-anchor="middle" x="157.3342" y="-661.8" font-family="Times,serif" font-size="14.00" fill="#000000">El_Dorado</text>
</g>
<!-- Towanda -->
<g id="node16" class="node">
<title>Towanda</title>
<ellipse fill="none" stroke="#000000" cx="157.3342" cy="-594" rx="46.9323" ry="18"/>
<text text-anchor="middle" x="157.3342" y="-589.8" font-family="Times,serif" font-size="14.00" fill="#000000">Towanda</text>
</g>
<!-- El_Dorado&#45;&gt;Towanda -->
<g id="edge13" class="edge">
<title>El_Dorado-&gt;Towanda</title>
<path fill="none" stroke="#000000" d="M157.3342,-647.8314C157.3342,-640.131 157.3342,-630.9743 157.3342,-622.4166"/>
<polygon fill="#000000" stroke="#000000" points="160.8343,-622.4132 157.3342,-612.4133 153.8343,-622.4133 160.8343,-622.4132"/>
</g>
<!-- Towanda&#45;&gt;Andover -->
<g id="edge14" class="edge">
<title>Towanda-&gt;Andover</title>
<path fill="none" stroke="#000000" d="M157.3342,-575.8314C157.3342,-568.131 157.3342,-558.9743 157.3342,-550.4166"/>
<polygon fill="#000000" stroke="#000000" points="160.8343,-550.4132 157.3342,-540.4133 153.8343,-550.4133 160.8343,-550.4132"/>
</g>
<!-- Florence -->
<g id="node18" class="node">
<title>Florence</title>
<ellipse fill="none" stroke="#000000" cx="357.3342" cy="-1026" rx="44.6414" ry="18"/>
<text text-anchor="middle" x="357.3342" y="-1021.8" font-family="Times,serif" font-size="14.00" fill="#000000">Florence</text>
</g>
<!-- McPherson -->
<g id="node19" class="node">
<title>McPherson</title>
<ellipse fill="none" stroke="#000000" cx="336.3342" cy="-954" rx="55.0362" ry="18"/>
<text text-anchor="middle" x="336.3342" y="-949.8" font-family="Times,serif" font-size="14.00" fill="#000000">McPherson</text>
</g>
<!-- Florence&#45;&gt;McPherson -->
<g id="edge17" class="edge">
<title>Florence-&gt;McPherson</title>
<path fill="none" stroke="#000000" d="M352.035,-1007.8314C349.7644,-1000.0463 347.0596,-990.7729 344.5402,-982.1347"/>
<polygon fill="#000000" stroke="#000000" points="347.8648,-981.0332 341.7047,-972.4133 341.1448,-982.9933 347.8648,-981.0332"/>
</g>
<!-- Hillsboro -->
<g id="node20" class="node">
<title>Hillsboro</title>
<ellipse fill="none" stroke="#000000" cx="123.3342" cy="-738" rx="47.5293" ry="18"/>
<text text-anchor="middle" x="123.3342" y="-733.8" font-family="Times,serif" font-size="14.00" fill="#000000">Hillsboro</text>
</g>
<!-- McPherson&#45;&gt;Hillsboro -->
<g id="edge18" class="edge">
<title>McPherson-&gt;Hillsboro</title>
<path fill="none" stroke="#000000" d="M282.2355,-950.3427C215.0175,-944.5412 106.122,-930.5867 81.3342,-900 51.1127,-862.7084 65.7564,-837.4019 81.3342,-792 84.9562,-781.4436 91.5781,-771.3611 98.5096,-762.8271"/>
<polygon fill="#000000" stroke="#000000" points="101.2556,-765.0027 105.1623,-755.1544 95.9669,-760.417 101.2556,-765.0027"/>
</g>
<!-- Hutchinson -->
<g id="node26" class="node">
<title>Hutchinson</title>
<ellipse fill="none" stroke="#000000" cx="357.3342" cy="-1098" rx="55.6198" ry="18"/>
<text text-anchor="middle" x="357.3342" y="-1093.8" font-family="Times,serif" font-size="14.00" fill="#000000">Hutchinson</text>
</g>
<!-- McPherson&#45;&gt;Hutchinson -->
<g id="edge47" class="edge">
<title>McPherson-&gt;Hutchinson</title>
<path fill="none" stroke="#000000" d="M322.0806,-971.4171C308.9723,-989.6674 293.0169,-1019.0918 303.3342,-1044 308.2097,-1055.7706 317.0336,-1066.3132 326.1547,-1074.8912"/>
<polygon fill="#000000" stroke="#000000" points="323.9851,-1077.6441 333.8063,-1081.6185 328.6072,-1072.387 323.9851,-1077.6441"/>
</g>
<!-- McPherson&#45;&gt;Newton -->
<g id="edge35" class="edge">
<title>McPherson-&gt;Newton</title>
<path fill="none" stroke="#000000" d="M340.4302,-935.9772C351.0981,-909.2973 374.3342,-857.3363 374.3342,-810 374.3342,-810 374.3342,-810 374.3342,-594 374.3342,-553.876 374.3342,-507.4631 376.552,-478.4177"/>
<polygon fill="#000000" stroke="#000000" points="380.0625,-478.4694 377.5151,-468.1854 373.0933,-477.8133 380.0625,-478.4694"/>
</g>
<!-- Salina -->
<g id="node37" class="node">
<title>Salina</title>
<ellipse fill="none" stroke="#000000" cx="125.3342" cy="-882" rx="35.3489" ry="18"/>
<text text-anchor="middle" x="125.3342" y="-877.8" font-family="Times,serif" font-size="14.00" fill="#000000">Salina</text>
</g>
<!-- McPherson&#45;&gt;Salina -->
<g id="edge40" class="edge">
<title>McPherson-&gt;Salina</title>
<path fill="none" stroke="#000000" d="M295.5466,-941.756C261.5524,-931.326 211.9753,-915.5908 169.3342,-900 166.9603,-899.132 164.5247,-898.2141 162.0761,-897.2707"/>
<polygon fill="#000000" stroke="#000000" points="163.2574,-893.9742 152.6708,-893.5566 160.6863,-900.485 163.2574,-893.9742"/>
</g>
<!-- Hillsboro&#45;&gt;El_Dorado -->
<g id="edge19" class="edge">
<title>Hillsboro-&gt;El_Dorado</title>
<path fill="none" stroke="#000000" d="M131.7387,-720.2022C135.6209,-711.981 140.3148,-702.041 144.6172,-692.9301"/>
<polygon fill="#000000" stroke="#000000" points="147.8033,-694.3796 148.9085,-683.8425 141.4735,-691.3905 147.8033,-694.3796"/>
</g>
<!-- Greensburg -->
<g id="node21" class="node">
<title>Greensburg</title>
<ellipse fill="none" stroke="#000000" cx="312.3342" cy="-1674" rx="56.1608" ry="18"/>
<text text-anchor="middle" x="312.3342" y="-1669.8" font-family="Times,serif" font-size="14.00" fill="#000000">Greensburg</text>
</g>
<!-- Greensburg&#45;&gt;Coldwater -->
<g id="edge20" class="edge">
<title>Greensburg-&gt;Coldwater</title>
<path fill="none" stroke="#000000" d="M310.8201,-1655.8314C310.1784,-1648.131 309.4154,-1638.9743 308.7022,-1630.4166"/>
<polygon fill="#000000" stroke="#000000" points="312.1871,-1630.088 307.8686,-1620.4133 305.2113,-1630.6694 312.1871,-1630.088"/>
</g>
<!-- Pratt -->
<g id="node23" class="node">
<title>Pratt</title>
<ellipse fill="none" stroke="#000000" cx="306.3342" cy="-1170" rx="29.049" ry="18"/>
<text text-anchor="middle" x="306.3342" y="-1165.8" font-family="Times,serif" font-size="14.00" fill="#000000">Pratt</text>
</g>
<!-- Coldwater&#45;&gt;Pratt -->
<g id="edge21" class="edge">
<title>Coldwater-&gt;Pratt</title>
<path fill="none" stroke="#000000" d="M306.3342,-1583.8146C306.3342,-1556.4983 306.3342,-1503.25 306.3342,-1458 306.3342,-1458 306.3342,-1458 306.3342,-1314 306.3342,-1273.876 306.3342,-1227.4631 306.3342,-1198.4177"/>
<polygon fill="#000000" stroke="#000000" points="309.8343,-1198.1853 306.3342,-1188.1854 302.8343,-1198.1854 309.8343,-1198.1853"/>
</g>
<!-- Pratt&#45;&gt;Hutchinson -->
<g id="edge33" class="edge">
<title>Pratt-&gt;Hutchinson</title>
<path fill="none" stroke="#000000" d="M318.1628,-1153.3008C324.3532,-1144.5614 332.0698,-1133.6674 339.0132,-1123.8649"/>
<polygon fill="#000000" stroke="#000000" points="341.9341,-1125.7965 344.8582,-1115.6132 336.2219,-1121.7504 341.9341,-1125.7965"/>
</g>
<!-- Zenda -->
<g id="node42" class="node">
<title>Zenda</title>
<ellipse fill="none" stroke="#000000" cx="248.3342" cy="-1098" rx="35.3334" ry="18"/>
<text text-anchor="middle" x="248.3342" y="-1093.8" font-family="Times,serif" font-size="14.00" fill="#000000">Zenda</text>
</g>
<!-- Pratt&#45;&gt;Zenda -->
<g id="edge54" class="edge">
<title>Pratt-&gt;Zenda</title>
<path fill="none" stroke="#000000" d="M293.1731,-1153.6621C285.7888,-1144.4953 276.428,-1132.8751 268.1716,-1122.6257"/>
<polygon fill="#000000" stroke="#000000" points="270.8447,-1120.3648 261.8457,-1114.7729 265.3934,-1124.7561 270.8447,-1120.3648"/>
</g>
<!-- Rago -->
<g id="node25" class="node">
<title>Rago</title>
<ellipse fill="none" stroke="#000000" cx="236.3342" cy="-1386" rx="31.341" ry="18"/>
<text text-anchor="middle" x="236.3342" y="-1381.8" font-family="Times,serif" font-size="14.00" fill="#000000">Rago</text>
</g>
<!-- Argonia&#45;&gt;Rago -->
<g id="edge24" class="edge">
<title>Argonia-&gt;Rago</title>
<path fill="none" stroke="#000000" d="M235.5865,-1439.8314C235.6935,-1432.131 235.8207,-1422.9743 235.9395,-1414.4166"/>
<polygon fill="#000000" stroke="#000000" points="239.4391,-1414.4609 236.0784,-1404.4133 232.4398,-1414.3637 239.4391,-1414.4609"/>
</g>
<!-- Viola -->
<g id="node39" class="node">
<title>Viola</title>
<ellipse fill="none" stroke="#000000" cx="237.3342" cy="-1314" rx="32.4808" ry="18"/>
<text text-anchor="middle" x="237.3342" y="-1309.8" font-family="Times,serif" font-size="14.00" fill="#000000">Viola</text>
</g>
<!-- Rago&#45;&gt;Viola -->
<g id="edge49" class="edge">
<title>Rago-&gt;Viola</title>
<path fill="none" stroke="#000000" d="M236.5865,-1367.8314C236.6935,-1360.131 236.8207,-1350.9743 236.9395,-1342.4166"/>
<polygon fill="#000000" stroke="#000000" points="240.4391,-1342.4609 237.0784,-1332.4133 233.4398,-1342.3637 240.4391,-1342.4609"/>
</g>
<!-- Hutchinson&#45;&gt;Florence -->
<g id="edge48" class="edge">
<title>Hutchinson-&gt;Florence</title>
<path fill="none" stroke="#000000" d="M357.3342,-1079.8314C357.3342,-1072.131 357.3342,-1062.9743 357.3342,-1054.4166"/>
<polygon fill="#000000" stroke="#000000" points="360.8343,-1054.4132 357.3342,-1044.4133 353.8343,-1054.4133 360.8343,-1054.4132"/>
</g>
<!-- Hutchinson&#45;&gt;Newton -->
<g id="edge25" class="edge">
<title>Hutchinson-&gt;Newton</title>
<path fill="none" stroke="#000000" d="M379.3505,-1081.2629C390.5853,-1071.5745 403.4996,-1058.4534 411.3342,-1044 430.8164,-1008.059 430.3342,-994.8816 430.3342,-954 430.3342,-954 430.3342,-954 430.3342,-594 430.3342,-551.421 411.5338,-505.1001 397.7141,-476.8024"/>
<polygon fill="#000000" stroke="#000000" points="400.6948,-474.9393 393.0726,-467.5805 394.4421,-478.0864 400.6948,-474.9393"/>
</g>
<!-- Newton&#45;&gt;El_Dorado -->
<g id="edge65" class="edge">
<title>Newton-&gt;El_Dorado</title>
<path fill="none" stroke="#000000" d="M365.8175,-466.7044C340.5286,-490.8241 292.3253,-536.8127 251.3342,-576 228.0812,-598.2297 201.6162,-623.5724 182.7051,-641.6888"/>
<polygon fill="#000000" stroke="#000000" points="180.1465,-639.293 175.3469,-648.7383 184.9891,-644.3476 180.1465,-639.293"/>
</g>
<!-- Newton&#45;&gt;Emporia -->
<g id="edge36" class="edge">
<title>Newton-&gt;Emporia</title>
<path fill="none" stroke="#000000" d="M366.635,-433.3008C357.4087,-424.0746 345.7812,-412.447 335.5717,-402.2375"/>
<polygon fill="#000000" stroke="#000000" points="337.9888,-399.7049 328.4428,-395.1086 333.039,-404.6546 337.9888,-399.7049"/>
</g>
<!-- Newton&#45;&gt;McPherson -->
<g id="edge46" class="edge">
<title>Newton-&gt;McPherson</title>
<path fill="none" stroke="#000000" d="M389.1532,-468.1854C392.3342,-495.5017 392.3342,-548.75 392.3342,-594 392.3342,-810 392.3342,-810 392.3342,-810 392.3342,-852.765 373.3693,-899.3046 357.2265,-927.5673"/>
<polygon fill="#000000" stroke="#000000" points="354.0557,-926.048 351.8917,-936.4195 360.0511,-929.6612 354.0557,-926.048"/>
</g>
<!-- Haven -->
<g id="node28" class="node">
<title>Haven</title>
<ellipse fill="none" stroke="#000000" cx="410.3342" cy="-378" rx="36.478" ry="18"/>
<text text-anchor="middle" x="410.3342" y="-373.8" font-family="Times,serif" font-size="14.00" fill="#000000">Haven</text>
</g>
<!-- Newton&#45;&gt;Haven -->
<g id="edge26" class="edge">
<title>Newton-&gt;Haven</title>
<path fill="none" stroke="#000000" d="M390.0083,-432.2022C393.0589,-424.0675 396.7404,-414.2501 400.1274,-405.2181"/>
<polygon fill="#000000" stroke="#000000" points="403.4091,-406.4348 403.6432,-395.8425 396.8548,-403.9769 403.4091,-406.4348"/>
</g>
<!-- Junction_City -->
<g id="node29" class="node">
<title>Junction_City</title>
<ellipse fill="none" stroke="#000000" cx="243.3342" cy="-882" rx="65.4498" ry="18"/>
<text text-anchor="middle" x="243.3342" y="-877.8" font-family="Times,serif" font-size="14.00" fill="#000000">Junction_City</text>
</g>
<!-- Abilene -->
<g id="node30" class="node">
<title>Abilene</title>
<ellipse fill="none" stroke="#000000" cx="231.3342" cy="-810" rx="41.7114" ry="18"/>
<text text-anchor="middle" x="231.3342" y="-805.8" font-family="Times,serif" font-size="14.00" fill="#000000">Abilene</text>
</g>
<!-- Junction_City&#45;&gt;Abilene -->
<g id="edge27" class="edge">
<title>Junction_City-&gt;Abilene</title>
<path fill="none" stroke="#000000" d="M240.3061,-863.8314C239.0227,-856.131 237.4966,-846.9743 236.0703,-838.4166"/>
<polygon fill="#000000" stroke="#000000" points="239.4995,-837.7018 234.4031,-828.4133 232.5948,-838.8526 239.4995,-837.7018"/>
</g>
<!-- Marion -->
<g id="node31" class="node">
<title>Marion</title>
<ellipse fill="none" stroke="#000000" cx="307.3342" cy="-738" rx="39.4254" ry="18"/>
<text text-anchor="middle" x="307.3342" y="-733.8" font-family="Times,serif" font-size="14.00" fill="#000000">Marion</text>
</g>
<!-- Abilene&#45;&gt;Marion -->
<g id="edge28" class="edge">
<title>Abilene-&gt;Marion</title>
<path fill="none" stroke="#000000" d="M248.9611,-793.3008C259.0083,-783.7825 271.7531,-771.7084 282.769,-761.2722"/>
<polygon fill="#000000" stroke="#000000" points="285.2124,-763.7787 290.0649,-754.3604 280.3982,-758.6971 285.2124,-763.7787"/>
</g>
<!-- Hays -->
<g id="node41" class="node">
<title>Hays</title>
<ellipse fill="none" stroke="#000000" cx="219.3342" cy="-738" rx="30.7577" ry="18"/>
<text text-anchor="middle" x="219.3342" y="-733.8" font-family="Times,serif" font-size="14.00" fill="#000000">Hays</text>
</g>
<!-- Abilene&#45;&gt;Hays -->
<g id="edge52" class="edge">
<title>Abilene-&gt;Hays</title>
<path fill="none" stroke="#000000" d="M228.3061,-791.8314C227.0227,-784.131 225.4966,-774.9743 224.0703,-766.4166"/>
<polygon fill="#000000" stroke="#000000" points="227.4995,-765.7018 222.4031,-756.4133 220.5948,-766.8526 227.4995,-765.7018"/>
</g>
<!-- Marion&#45;&gt;McPherson -->
<g id="edge34" class="edge">
<title>Marion-&gt;McPherson</title>
<path fill="none" stroke="#000000" d="M309.7703,-756.1451C314.8358,-793.8741 326.5344,-881.0083 332.5743,-925.9956"/>
<polygon fill="#000000" stroke="#000000" points="329.1119,-926.5102 333.9115,-935.9555 336.0497,-925.5786 329.1119,-926.5102"/>
</g>
<!-- Manhattan -->
<g id="node32" class="node">
<title>Manhattan</title>
<ellipse fill="none" stroke="#000000" cx="294.3342" cy="-666" rx="52.1675" ry="18"/>
<text text-anchor="middle" x="294.3342" y="-661.8" font-family="Times,serif" font-size="14.00" fill="#000000">Manhattan</text>
</g>
<!-- Marion&#45;&gt;Manhattan -->
<g id="edge29" class="edge">
<title>Marion-&gt;Manhattan</title>
<path fill="none" stroke="#000000" d="M304.0537,-719.8314C302.6634,-712.131 301.0101,-702.9743 299.465,-694.4166"/>
<polygon fill="#000000" stroke="#000000" points="302.88,-693.6322 297.6588,-684.4133 295.9914,-694.8761 302.88,-693.6322"/>
</g>
<!-- Topeka -->
<g id="node33" class="node">
<title>Topeka</title>
<ellipse fill="none" stroke="#000000" cx="300.3342" cy="-594" rx="39.9896" ry="18"/>
<text text-anchor="middle" x="300.3342" y="-589.8" font-family="Times,serif" font-size="14.00" fill="#000000">Topeka</text>
</g>
<!-- Manhattan&#45;&gt;Topeka -->
<g id="edge30" class="edge">
<title>Manhattan-&gt;Topeka</title>
<path fill="none" stroke="#000000" d="M295.8482,-647.8314C296.4899,-640.131 297.253,-630.9743 297.9661,-622.4166"/>
<polygon fill="#000000" stroke="#000000" points="301.4571,-622.6694 298.7997,-612.4133 294.4813,-622.088 301.4571,-622.6694"/>
</g>
<!-- Kingman -->
<g id="node34" class="node">
<title>Kingman</title>
<ellipse fill="none" stroke="#000000" cx="399.3342" cy="-234" rx="46.9516" ry="18"/>
<text text-anchor="middle" x="399.3342" y="-229.8" font-family="Times,serif" font-size="14.00" fill="#000000">Kingman</text>
</g>
<!-- Cheney -->
<g id="node35" class="node">
<title>Cheney</title>
<ellipse fill="none" stroke="#000000" cx="421.3342" cy="-162" rx="40.5712" ry="18"/>
<text text-anchor="middle" x="421.3342" y="-157.8" font-family="Times,serif" font-size="14.00" fill="#000000">Cheney</text>
</g>
<!-- Kingman&#45;&gt;Cheney -->
<g id="edge31" class="edge">
<title>Kingman-&gt;Cheney</title>
<path fill="none" stroke="#000000" d="M404.8857,-215.8314C407.3011,-207.9266 410.1853,-198.4872 412.8591,-189.7365"/>
<polygon fill="#000000" stroke="#000000" points="416.2856,-190.4997 415.8606,-179.9134 409.5912,-188.4541 416.2856,-190.4997"/>
</g>
<!-- Cheney&#45;&gt;Pratt -->
<g id="edge32" class="edge">
<title>Cheney-&gt;Pratt</title>
<path fill="none" stroke="#000000" d="M434.3401,-179.1431C441.5087,-189.3575 450.0087,-202.8575 455.3342,-216 470.6872,-253.8892 474.3342,-265.1184 474.3342,-306 474.3342,-1026 474.3342,-1026 474.3342,-1026 474.3342,-1072.1966 456.409,-1084.8066 422.3342,-1116 399.7245,-1136.6978 367.7863,-1150.7718 343.145,-1159.3491"/>
<polygon fill="#000000" stroke="#000000" points="341.8031,-1156.1069 333.419,-1162.5844 344.0125,-1162.7491 341.8031,-1156.1069"/>
</g>
<!-- Cheney&#45;&gt;Mulvane -->
<g id="edge62" class="edge">
<title>Cheney-&gt;Mulvane</title>
<path fill="none" stroke="#000000" d="M430.9746,-144.2022C435.4747,-135.8944 440.9254,-125.8316 445.9027,-116.6427"/>
<polygon fill="#000000" stroke="#000000" points="448.9841,-118.3025 450.6695,-107.8425 442.8291,-114.9685 448.9841,-118.3025"/>
</g>
<!-- Wellington&#45;&gt;Caldwell -->
<g id="edge38" class="edge">
<title>Wellington-&gt;Caldwell</title>
<path fill="none" stroke="#000000" d="M417.9746,-1584.2022C412.0409,-1575.6576 404.8178,-1565.2564 398.2918,-1555.859"/>
<polygon fill="#000000" stroke="#000000" points="401.1304,-1553.8103 392.5516,-1547.593 395.3808,-1557.8031 401.1304,-1553.8103"/>
</g>
<!-- Oxford -->
<g id="node43" class="node">
<title>Oxford</title>
<ellipse fill="none" stroke="#000000" cx="483.3342" cy="-1530" rx="38.8459" ry="18"/>
<text text-anchor="middle" x="483.3342" y="-1525.8" font-family="Times,serif" font-size="14.00" fill="#000000">Oxford</text>
</g>
<!-- Wellington&#45;&gt;Oxford -->
<g id="edge55" class="edge">
<title>Wellington-&gt;Oxford</title>
<path fill="none" stroke="#000000" d="M443.4353,-1584.2022C449.819,-1575.5301 457.6104,-1564.9455 464.6083,-1555.4389"/>
<polygon fill="#000000" stroke="#000000" points="467.6392,-1557.2255 470.7487,-1547.0972 462.0018,-1553.0757 467.6392,-1557.2255"/>
</g>
<!-- Salina&#45;&gt;Abilene -->
<g id="edge51" class="edge">
<title>Salina-&gt;Abilene</title>
<path fill="none" stroke="#000000" d="M146.5301,-867.6028C161.8619,-857.1887 182.8282,-842.9474 200.0774,-831.231"/>
<polygon fill="#000000" stroke="#000000" points="202.4037,-833.882 208.7093,-825.3678 198.4705,-828.0914 202.4037,-833.882"/>
</g>
<!-- Lyons -->
<g id="node38" class="node">
<title>Lyons</title>
<ellipse fill="none" stroke="#000000" cx="125.3342" cy="-810" rx="35.3548" ry="18"/>
<text text-anchor="middle" x="125.3342" y="-805.8" font-family="Times,serif" font-size="14.00" fill="#000000">Lyons</text>
</g>
<!-- Salina&#45;&gt;Lyons -->
<g id="edge41" class="edge">
<title>Salina-&gt;Lyons</title>
<path fill="none" stroke="#000000" d="M125.3342,-863.8314C125.3342,-856.131 125.3342,-846.9743 125.3342,-838.4166"/>
<polygon fill="#000000" stroke="#000000" points="128.8343,-838.4132 125.3342,-828.4133 121.8343,-838.4133 128.8343,-838.4132"/>
</g>
<!-- Lyons&#45;&gt;Hillsboro -->
<g id="edge42" class="edge">
<title>Lyons-&gt;Hillsboro</title>
<path fill="none" stroke="#000000" d="M124.8295,-791.8314C124.6156,-784.131 124.3613,-774.9743 124.1235,-766.4166"/>
<polygon fill="#000000" stroke="#000000" points="127.6221,-766.3122 123.8457,-756.4133 120.6248,-766.5066 127.6221,-766.3122"/>
</g>
<!-- Sawyer -->
<g id="node40" class="node">
<title>Sawyer</title>
<ellipse fill="none" stroke="#000000" cx="237.3342" cy="-1242" rx="39.9857" ry="18"/>
<text text-anchor="middle" x="237.3342" y="-1237.8" font-family="Times,serif" font-size="14.00" fill="#000000">Sawyer</text>
</g>
<!-- Viola&#45;&gt;Sawyer -->
<g id="edge50" class="edge">
<title>Viola-&gt;Sawyer</title>
<path fill="none" stroke="#000000" d="M237.3342,-1295.8314C237.3342,-1288.131 237.3342,-1278.9743 237.3342,-1270.4166"/>
<polygon fill="#000000" stroke="#000000" points="240.8343,-1270.4132 237.3342,-1260.4133 233.8343,-1270.4133 240.8343,-1270.4132"/>
</g>
<!-- Sawyer&#45;&gt;Pratt -->
<g id="edge53" class="edge">
<title>Sawyer-&gt;Pratt</title>
<path fill="none" stroke="#000000" d="M253.3376,-1225.3008C262.5638,-1215.6734 274.2957,-1203.4314 284.3747,-1192.9142"/>
<polygon fill="#000000" stroke="#000000" points="286.9701,-1195.2645 291.3622,-1185.6229 281.9162,-1190.4212 286.9701,-1195.2645"/>
</g>
<!-- Oxford&#45;&gt;Mayfield -->
<g id="edge56" class="edge">
<title>Oxford-&gt;Mayfield</title>
<path fill="none" stroke="#000000" d="M488.3704,-1548.0312C492.7563,-1566.2743 497.7719,-1595.2407 493.3342,-1620 491.7369,-1628.9118 488.7668,-1638.2762 485.595,-1646.6578"/>
<polygon fill="#000000" stroke="#000000" points="482.3382,-1645.3759 481.8493,-1655.9594 488.8315,-1647.9907 482.3382,-1645.3759"/>
</g>
<!-- Mulvane&#45;&gt;Andover -->
<g id="edge63" class="edge">
<title>Mulvane-&gt;Andover</title>
<path fill="none" stroke="#000000" d="M416.5344,-95.1169C306.7074,-109.1608 28.3342,-152.769 28.3342,-234 28.3342,-378 28.3342,-378 28.3342,-378 28.3342,-420.1637 31.2814,-435.6593 58.3342,-468 72.6917,-485.1639 93.9631,-497.7656 113.1128,-506.4575"/>
<polygon fill="#000000" stroke="#000000" points="111.7344,-509.6746 122.3035,-510.4132 114.5018,-503.2449 111.7344,-509.6746"/>
</g>
<!-- Mulvane&#45;&gt;South_Haven -->
<g id="edge58" class="edge">
<title>Mulvane-&gt;South_Haven</title>
<path fill="none" stroke="#000000" d="M480.7566,-73.6621C492.6964,-64.1102 507.9661,-51.8945 521.1572,-41.3416"/>
<polygon fill="#000000" stroke="#000000" points="523.4313,-44.0045 529.0535,-35.0245 519.0584,-38.5385 523.4313,-44.0045"/>
</g>
<!-- Clearwater -->
<g id="node46" class="node">
<title>Clearwater</title>
<ellipse fill="none" stroke="#000000" cx="195.3342" cy="-234" rx="53.284" ry="18"/>
<text text-anchor="middle" x="195.3342" y="-229.8" font-family="Times,serif" font-size="14.00" fill="#000000">Clearwater</text>
</g>
<!-- Derby&#45;&gt;Clearwater -->
<g id="edge60" class="edge">
<title>Derby-&gt;Clearwater</title>
<path fill="none" stroke="#000000" d="M158.7095,-288.937C164.4404,-280.3407 171.5139,-269.7304 177.9116,-260.1338"/>
<polygon fill="#000000" stroke="#000000" points="180.9044,-261.9544 183.5392,-251.6924 175.08,-258.0715 180.9044,-261.9544"/>
</g>
<!-- Clearwater&#45;&gt;Cheney -->
<g id="edge61" class="edge">
<title>Clearwater-&gt;Cheney</title>
<path fill="none" stroke="#000000" d="M234.185,-221.6228C274.3772,-208.8182 336.9767,-188.8749 378.5583,-175.6277"/>
<polygon fill="#000000" stroke="#000000" points="379.6656,-178.9484 388.1313,-172.5779 377.5407,-172.2786 379.6656,-178.9484"/>
</g>
</g>
</svg>